<svg id="visual" viewBox="0 0 960 540" width="960" height="540" xmlns="http://www.w3.org/2000/svg" xmlns:xlink="http://www.w3.org/1999/xlink" version="1.1"><path d="M111 0L110.2 7C109.3 14 107.7 28 105.8 41.8C104 55.7 102 69.3 98.3 83.2C94.7 97 89.3 111 88.3 124.8C87.3 138.7 90.7 152.3 95.3 166.2C100 180 106 194 105.3 207.8C104.7 221.7 97.3 235.3 91.7 249.2C86 263 82 277 80.8 290.8C79.7 304.7 81.3 318.3 82.7 332.2C84 346 85 360 87.2 373.8C89.3 387.7 92.7 401.3 94.7 415.2C96.7 429 97.3 443 100.3 456.8C103.3 470.7 108.7 484.3 108.7 498.2C108.7 512 103.3 526 100.7 533L98 540L0 540L0 533C0 526 0 512 0 498.2C0 484.3 0 470.7 0 456.8C0 443 0 429 0 415.2C0 401.3 0 387.7 0 373.8C0 360 0 346 0 332.2C0 318.3 0 304.7 0 290.8C0 277 0 263 0 249.2C0 235.3 0 221.7 0 207.8C0 194 0 180 0 166.2C0 152.3 0 138.7 0 124.8C0 111 0 97 0 83.2C0 69.3 0 55.7 0 41.8C0 28 0 14 0 7L0 0Z" fill="#d1515a"></path><path d="M74 0L71.2 7C68.3 14 62.7 28 60.7 41.8C58.7 55.7 60.3 69.3 63.2 83.2C66 97 70 111 71.7 124.8C73.3 138.7 72.7 152.3 71.2 166.2C69.7 180 67.3 194 65.3 207.8C63.3 221.7 61.7 235.3 63.7 249.2C65.7 263 71.3 277 71.7 290.8C72 304.7 67 318.3 63 332.2C59 346 56 360 56.5 373.8C57 387.7 61 401.3 62.5 415.2C64 429 63 443 61.8 456.8C60.7 470.7 59.3 484.3 61.7 498.2C64 512 70 526 73 533L76 540L0 540L0 533C0 526 0 512 0 498.2C0 484.3 0 470.7 0 456.8C0 443 0 429 0 415.2C0 401.3 0 387.7 0 373.8C0 360 0 346 0 332.2C0 318.3 0 304.7 0 290.8C0 277 0 263 0 249.2C0 235.3 0 221.7 0 207.8C0 194 0 180 0 166.2C0 152.3 0 138.7 0 124.8C0 111 0 97 0 83.2C0 69.3 0 55.7 0 41.8C0 28 0 14 0 7L0 0Z" fill="#091f43"></path></svg>