<svg id="visual" viewBox="0 0 960 540" width="960" height="540" xmlns="http://www.w3.org/2000/svg" xmlns:xlink="http://www.w3.org/1999/xlink" version="1.1"><path d="M851 540L851.8 533C852.7 526 854.3 512 856.2 498.2C858 484.3 860 470.7 863.7 456.8C867.3 443 872.7 429 873.7 415.2C874.7 401.3 871.3 387.7 866.7 373.8C862 360 856 346 856.7 332.2C857.3 318.3 864.7 304.7 870.3 290.8C876 277 880 263 881.2 249.2C882.3 235.3 880.7 221.7 879.3 207.8C878 194 877 180 874.8 166.2C872.7 152.3 869.3 138.7 867.3 124.8C865.3 111 864.7 97 861.7 83.2C858.7 69.3 853.3 55.7 853.3 41.8C853.3 28 858.7 14 861.3 7L864 0L960 0L960 7C960 14 960 28 960 41.8C960 55.7 960 69.3 960 83.2C960 97 960 111 960 124.8C960 138.7 960 152.3 960 166.2C960 180 960 194 960 207.8C960 221.7 960 235.3 960 249.2C960 263 960 277 960 290.8C960 304.7 960 318.3 960 332.2C960 346 960 360 960 373.8C960 387.7 960 401.3 960 415.2C960 429 960 443 960 456.8C960 470.7 960 484.3 960 498.2C960 512 960 526 960 533L960 540Z" fill="#d1515a"></path><path d="M888 540L890.8 533C893.7 526 899.3 512 901.3 498.2C903.3 484.3 901.7 470.7 898.8 456.8C896 443 892 429 890.3 415.2C888.7 401.3 889.3 387.7 890.8 373.8C892.3 360 894.7 346 896.7 332.2C898.7 318.3 900.3 304.7 898.3 290.8C896.3 277 890.7 263 890.3 249.2C890 235.3 895 221.7 899 207.8C903 194 906 180 905.5 166.2C905 152.3 901 138.7 899.5 124.8C898 111 899 97 900.2 83.2C901.3 69.3 902.7 55.7 900.3 41.8C898 28 892 14 889 7L886 0L960 0L960 7C960 14 960 28 960 41.8C960 55.7 960 69.3 960 83.2C960 97 960 111 960 124.8C960 138.7 960 152.3 960 166.2C960 180 960 194 960 207.8C960 221.7 960 235.3 960 249.2C960 263 960 277 960 290.8C960 304.7 960 318.3 960 332.2C960 346 960 360 960 373.8C960 387.7 960 401.3 960 415.2C960 429 960 443 960 456.8C960 470.7 960 484.3 960 498.2C960 512 960 526 960 533L960 540Z" fill="#091f43"></path></svg>