<svg id="visual" viewBox="0 0 960 540" width="960" height="540" xmlns="http://www.w3.org/2000/svg" xmlns:xlink="http://www.w3.org/1999/xlink" version="1.1"><path d="M900 540L901.7 527.2C903.3 514.3 906.7 488.7 906.7 463C906.7 437.3 903.3 411.7 903.7 386C904 360.3 908 334.7 911.5 308.8C915 283 918 257 917.5 231.2C917 205.3 913 179.7 909.7 154C906.3 128.3 903.7 102.7 903.2 77C902.7 51.3 904.3 25.7 905.2 12.8L906 0L960 0L960 12.8C960 25.7 960 51.3 960 77C960 102.7 960 128.3 960 154C960 179.7 960 205.3 960 231.2C960 257 960 283 960 308.8C960 334.7 960 360.3 960 386C960 411.7 960 437.3 960 463C960 488.7 960 514.3 960 527.2L960 540Z" fill="#091f43" stroke-linecap="round" stroke-linejoin="miter"></path></svg>